<?xml version="1.0" encoding="UTF-8"?>
<svg width="220px" height="220px" viewBox="0 0 220 220" version="1.1" xmlns="http://www.w3.org/2000/svg" xmlns:xlink="http://www.w3.org/1999/xlink">
    <!-- Generator: Sketch 48.2 (47327) - http://www.bohemiancoding.com/sketch -->
    <title>BVP Icon</title>
    <desc>Created with Sketch.</desc>
    <defs>
        <polygon id="path-1" points="0.389702267 0.268278571 26.2869164 0.268278571 26.2869164 16.2525593 0.389702267 16.2525593"></polygon>
    </defs>
    <g id="Website" stroke="none" stroke-width="1" fill="none" fill-rule="evenodd">
        <g id="BVP-Icon">
            <g id="Page-1" transform="translate(4.000000, 39.000000)">
                <polygon id="Fill-1" fill="#E20000" points="0 124.894053 37.2096416 134 37.1335856 124.684119 30.0542923 118.766321 39 97.474548 38.7241702 96.9032024 10.5276727 71"></polygon>
                <g id="Group-29" transform="translate(10.000000, 0.000000)">
                    <path d="M83.2683179,14.3741021 L56.9813506,53.9545736 L53.5000307,59.5174236 L28.7466353,96.836545 L56.7508569,97.3462236 L78.0707612,100.961645 L83.4184186,14.4030093 C83.3660106,14.3964164 83.3161466,14.3862736 83.2683179,14.3741021" id="Fill-2" fill="#D30202"></path>
                    <polygon id="Fill-4" fill="#FF0000" points="134.386428 35.5596907 112.748005 94.6205336 77.8467804 101.379734 83.4356166 14.4605193 83.3409768 14.374305 109.785677 10.6741907 134.335546 16.2892764"></polygon>
                    <polygon id="Fill-6" fill="#BC0202" points="56.6739748 97.205035 77.8468312 100.915799 77.8468312 113.902206 81.104272 119.004064 83.1985592 126.657356 89.2478741 133.614342 89.2478741 139.411999 59.0007909 139.411999"></polygon>
                    <polygon id="Fill-8" fill="#F41B00" points="112.747852 93.9583571 112.646089 94.6719071 125.066799 133.864414 138.460875 142 147.648567 135.237757 143.693031 126.657407 139.504965 126.657407 138.80687 86.7691"></polygon>
                    <polygon id="Fill-10" fill="#E20000" points="138.807022 86.7692014 161.630478 88.4306014 176.962125 104.456823 180.336594 112.776501 189.296846 116.221523 195.579198 93.2626586 163.558891 64.6750157 146.485057 49.43233 134.488191 35.4017157"></polygon>
                    <path d="M139.272335,87.2330343 L147.880994,49.6638914 L139.272335,87.2330343 Z" id="Fill-12" fill="#8C6239"></path>
                    <g id="Group-16" transform="translate(133.818640, 0.000000)">
                        <mask id="mask-2" fill="white">
                            <use xlink:href="#path-1"></use>
                        </mask>
                        <g id="Clip-15"></g>
                        <polygon id="Fill-14" fill="#B70000" mask="url(#mask-2)" points="9.17644786 0.267923571 19.879395 0.267923571 26.2869164 8.97860929 25.2092438 9.28543071 0.389702267 16.2525593"></polygon>
                    </g>
                    <polygon id="Fill-17" fill="#FF0000" points="159.980286 8.84852714 178.844643 10.4896414 186.794386 23.2427629 201.651308 28.5520414 199.301595 40.7858486 159.292366 61.0299771"></polygon>
                    <polygon id="Fill-19" fill="#D30202" points="159.487345 60.8249393 138.807022 87.0011179 112.514967 94.190375 133.361672 38.2662107 134.386428 35.5180036"></polygon>
                    <path d="M20.377068,23.9226386 L28.0551033,97.6688171" id="Fill-21" fill="#754C24"></path>
                    <polyline id="Fill-23" fill="#CA0000" points="41.0847647 41.7793414 82.3090469 14.5980057 82.9715254 14.90077 29.3936967 96.62532 29.2868453 95.6404486 39.2896615 46.33247"></polyline>
                    <path d="M83.5979798,14.3295243 L44.4135416,10.2399243 L21.3076927,23.9226386 L0.367365239,71.23146 L28.9307758,97.7317029 L40.3267305,44.0866386 C40.3267305,44.0866386 83.7246751,14.3807457 83.5979798,14.3295243" id="Fill-25" fill="#B70202"></path>
                    <polyline id="Fill-27" fill="#E50000" points="160.070193 8.78462714 134.207579 16.1924629 134.182138 35.8072271 159.462158 61.19632"></polyline>
                </g>
            </g>
        </g>
    </g>
</svg>